<?xml version="1.0" encoding="UTF-8"?>
<svg xmlns="http://www.w3.org/2000/svg" xmlns:xlink="http://www.w3.org/1999/xlink" width="311.26pt" height="126.12pt" viewBox="0 0 311.26 126.12" version="1.1">
<defs>
<clipPath id="clip1">
  <path d="M 136 0 L 311.261719 0 L 311.261719 126 L 136 126 Z M 136 0 "/>
</clipPath>
<clipPath id="clip2">
  <path d="M 0 0 L 176 0 L 176 126.121094 L 0 126.121094 Z M 0 0 "/>
</clipPath>
</defs>
<g id="surface1">
<path style=" stroke:none;fill-rule:nonzero;fill:rgb(98.399353%,91.799927%,19.198608%);fill-opacity:1;" d="M 236.199219 75.863281 L 225.976563 98.730469 C 224.699219 101.855469 221.117188 104.378906 217.988281 104.359375 L 201.359375 104.273438 C 195.097656 104.238281 192.097656 99.148438 194.660156 92.898438 L 204.039063 70.027344 C 205.320313 66.902344 208.898438 64.386719 212.027344 64.398438 L 229.503906 64.492188 C 235.765625 64.523438 238.761719 69.617188 236.199219 75.863281 M 266.460938 105.722656 L 282.296875 65.632813 L 282.210938 65.800781 C 282.300781 65.582031 282.367188 65.367188 282.445313 65.148438 L 282.117188 65.800781 C 284.683594 59.554688 281.6875 54.464844 275.429688 54.425781 L 210.625 54.089844 L 210.53125 54.089844 L 212.882813 48.613281 L 218.050781 36.089844 L 218.074219 36.089844 L 222.429688 25.472656 C 223.710938 22.347656 227.289063 19.828125 230.417969 19.84375 L 243.816406 19.914063 L 245.878906 19.925781 L 245.882813 19.925781 L 247.796875 19.933594 C 247.804688 19.933594 247.8125 19.933594 247.824219 19.933594 L 247.890625 19.933594 C 254.152344 19.96875 257.152344 25.058594 254.589844 31.308594 L 253.710938 33.273438 L 270.320313 33.359375 L 294.992188 33.492188 L 301.253906 20.882813 C 303.8125 14.636719 300.816406 9.542969 294.554688 9.511719 L 221.574219 9.132813 L 196.800781 9.003906 C 190.539063 8.96875 183.386719 14.007813 180.824219 20.257813 L 146.027344 105.09375 C 143.46875 111.34375 146.464844 116.433594 152.71875 116.46875 L 250.480469 116.980469 C 256.742188 117.011719 263.894531 111.972656 266.460938 105.722656 "/>
<g clip-path="url(#clip1)" clip-rule="nonzero">
<path style=" stroke:none;fill-rule:nonzero;fill:rgb(0%,0%,0%);fill-opacity:1;" d="M 304.117188 22.023438 L 304.03125 22.21875 L 296.941406 36.503906 L 249.378906 36.253906 L 249.601563 36.039063 L 249.285156 36.253906 L 251.851563 30.085938 C 252.71875 27.96875 252.734375 25.957031 251.867188 24.65625 C 250.925781 23.246094 249.179688 22.941406 247.875 22.933594 L 230.402344 22.84375 C 228.496094 22.835938 226.015625 24.628906 225.207031 26.609375 L 220.378906 38.378906 L 215.164063 51.113281 L 275.527344 51.425781 C 279.425781 51.449219 282.605469 53.007813 284.480469 55.820313 C 286.292969 58.535156 286.609375 62.125 285.398438 65.816406 L 285.519531 65.871094 L 269.34375 106.828125 C 266.292969 114.257813 258.050781 120.019531 250.558594 119.980469 L 152.714844 119.46875 C 148.816406 119.449219 145.636719 117.890625 143.761719 115.078125 C 141.765625 112.089844 141.582031 108.035156 143.253906 103.960938 L 178.046875 19.117188 C 181.078125 11.722656 189.324219 5.960938 196.816406 6 L 294.660156 6.511719 C 298.558594 6.53125 301.738281 8.089844 303.613281 10.902344 C 305.605469 13.890625 305.792969 17.945313 304.117188 22.023438 M 308.601563 7.574219 C 305.632813 3.113281 300.558594 0.539063 294.691406 0.511719 L 196.847656 0 C 186.921875 -0.0507813 176.453125 7.191406 172.496094 16.839844 L 137.703125 101.679688 C 135.261719 107.636719 135.648438 113.730469 138.769531 118.40625 C 140.640625 121.210938 143.339844 123.269531 146.546875 124.417969 C 148.4375 125.097656 155.648438 125.980469 155.648438 125.980469 L 250.523438 125.980469 C 260.449219 126.03125 270.925781 118.777344 274.921875 109.03125 C 274.921875 109.03125 282.609375 89.917969 286.957031 78.554688 C 288.484375 74.566406 291.386719 66.472656 292.097656 62.261719 C 292.6875 58.746094 291.347656 55.296875 289.472656 52.488281 C 286.5 48.03125 281.429688 45.457031 275.558594 45.425781 L 224.085938 45.160156 L 230.699219 29.03125 C 230.75 28.96875 230.828125 28.90625 230.902344 28.847656 L 245.835938 28.925781 L 243.746094 33.949219 L 240.40625 42.207031 L 300.648438 42.519531 L 309.40625 24.886719 L 309.671875 24.300781 C 312.113281 18.347656 311.722656 12.25 308.601563 7.574219 M 212.308594 73.585938 C 212.359375 73.527344 212.4375 73.460938 212.511719 73.40625 L 227.40625 73.480469 L 217.722656 95.144531 L 217.714844 95.171875 C 217.664063 95.230469 217.582031 95.300781 217.503906 95.355469 L 203.40625 95.28125 Z M 197.386719 99.554688 C 198.324219 100.960938 200.070313 101.265625 201.375 101.273438 L 218.007813 101.363281 C 219.914063 101.371094 222.390625 99.578125 223.203125 97.59375 L 233.460938 74.640625 C 234.324219 72.527344 234.347656 70.515625 233.476563 69.210938 C 232.535156 67.800781 230.789063 67.496094 229.484375 67.492188 L 212.011719 67.402344 C 210.105469 67.390625 207.625 69.183594 206.8125 71.167969 L 197.433594 94.039063 C 196.53125 96.242188 196.515625 98.25 197.386719 99.554688 "/>
</g>
<path style=" stroke:none;fill-rule:nonzero;fill:rgb(6.298828%,43.899536%,70.199585%);fill-opacity:1;" d="M 301.34375 20.886719 L 295.085938 33.492188 L 253.710938 33.273438 L 254.589844 31.308594 C 257.152344 25.058594 254.152344 19.96875 247.890625 19.9375 L 230.417969 19.84375 C 227.289063 19.828125 223.710938 22.347656 222.429688 25.472656 L 218.074219 36.089844 L 218.050781 36.089844 L 210.621094 54.089844 L 275.511719 54.425781 C 281.777344 54.457031 284.773438 59.550781 282.210938 65.800781 L 282.726563 64.769531 L 266.550781 105.726563 C 263.988281 111.972656 256.835938 117.011719 250.574219 116.980469 L 152.730469 116.472656 C 146.464844 116.4375 143.464844 111.347656 146.027344 105.097656 L 180.824219 20.257813 C 183.382813 14.007813 190.539063 8.96875 196.800781 9.003906 L 294.644531 9.511719 C 300.90625 9.542969 303.90625 14.636719 301.34375 20.886719 M 304.117188 22.023438 C 305.789063 17.945313 305.605469 13.894531 303.613281 10.902344 C 301.738281 8.089844 298.558594 6.53125 294.660156 6.511719 L 196.816406 6 C 189.324219 5.960938 181.078125 11.722656 178.046875 19.117188 L 143.253906 103.957031 C 141.582031 108.035156 141.765625 112.089844 143.761719 115.078125 C 145.636719 117.890625 148.816406 119.449219 152.714844 119.472656 L 250.558594 119.980469 C 258.050781 120.019531 266.292969 114.257813 269.34375 106.828125 L 285.519531 65.871094 L 285.398438 65.816406 C 286.609375 62.125 286.289063 58.53125 284.480469 55.820313 C 282.605469 53.007813 279.425781 51.449219 275.527344 51.429688 L 215.164063 51.113281 L 220.375 38.378906 L 225.203125 26.609375 C 226.015625 24.628906 228.492188 22.835938 230.402344 22.84375 L 247.875 22.933594 C 249.175781 22.941406 250.925781 23.246094 251.867188 24.65625 C 252.734375 25.957031 252.71875 27.96875 251.851563 30.085938 L 249.285156 36.25 L 249.601563 36.039063 L 249.378906 36.253906 L 296.941406 36.5 L 304.03125 22.21875 Z M 212.011719 67.402344 L 229.484375 67.492188 C 230.789063 67.496094 232.535156 67.800781 233.476563 69.210938 C 234.34375 70.515625 234.324219 72.527344 233.460938 74.640625 L 223.203125 97.59375 C 222.390625 99.574219 219.914063 101.371094 218.003906 101.363281 L 201.375 101.273438 C 200.070313 101.265625 198.324219 100.960938 197.382813 99.554688 C 196.515625 98.246094 196.53125 96.238281 197.433594 94.039063 L 206.8125 71.167969 C 207.625 69.1875 210.105469 67.390625 212.011719 67.402344 M 204.039063 70.027344 L 194.65625 92.898438 C 192.097656 99.148438 195.097656 104.238281 201.359375 104.273438 L 217.988281 104.359375 C 221.117188 104.375 224.699219 101.859375 225.976563 98.734375 L 236.199219 75.863281 C 238.761719 69.617188 235.765625 64.523438 229.5 64.492188 L 212.027344 64.402344 C 208.898438 64.386719 205.320313 66.902344 204.039063 70.027344 "/>
<path style=" stroke:none;fill-rule:nonzero;fill:rgb(98.399353%,91.799927%,19.198608%);fill-opacity:1;" d="M 112.253906 20.042969 L 44.957031 73.210938 L 90.410156 73.445313 Z M 127.460938 91.644531 L 117.257813 116.589844 L 72.859375 116.355469 L 83.066406 91.410156 L 13.609375 91.046875 L 20.25 73.082031 L 103.566406 9.0625 L 161.335938 9.0625 L 134.808594 73.679688 L 158.414063 73.800781 L 151.066406 91.765625 "/>
<g clip-path="url(#clip2)" clip-rule="nonzero">
<path style=" stroke:none;fill-rule:nonzero;fill:rgb(0%,0%,0%);fill-opacity:1;" d="M 163.617188 70.328125 L 153.929688 94.015625 L 153.8125 93.96875 L 153.277344 95.273438 L 129.804688 95.152344 L 119.601563 120.101563 L 67.65625 119.832031 L 77.863281 94.882813 L 8.59375 94.519531 L 17.316406 70.921875 L 17.542969 70.746094 L 101.757813 6.042969 L 166.253906 6.042969 L 140.007813 70.207031 Z M 175.066406 0.0390625 L 99.71875 0.1875 L 13.894531 65.984375 L 12.289063 67.214844 L 0 100.476563 L 68.945313 100.835938 L 58.742188 125.785156 L 123.621094 126.121094 L 133.824219 101.175781 L 157.207031 101.214844 L 172.535156 64.375 L 148.925781 64.253906 Z M 84.71875 64.917969 L 69.269531 64.839844 L 92.140625 46.765625 Z M 54.96875 69.761719 L 88.066406 69.933594 L 103.972656 31.046875 "/>
</g>
<path style=" stroke:none;fill-rule:nonzero;fill:rgb(6.298828%,43.899536%,70.199585%);fill-opacity:1;" d="M 151.066406 91.765625 L 127.460938 91.644531 L 117.257813 116.585938 L 72.859375 116.359375 L 83.066406 91.410156 L 13.609375 91.046875 L 20.246094 73.082031 L 103.570313 9.0625 L 161.335938 9.0625 L 134.804688 73.679688 L 158.414063 73.800781 Z M 140.007813 70.207031 L 166.253906 6.039063 L 101.757813 6.039063 L 17.542969 70.746094 L 17.316406 70.917969 L 8.597656 94.523438 L 77.863281 94.882813 L 67.65625 119.832031 L 119.601563 120.101563 L 129.804688 95.152344 L 153.277344 95.277344 L 153.8125 93.96875 L 153.929688 94.015625 L 163.617188 70.328125 Z M 88.066406 69.933594 L 54.96875 69.761719 L 103.972656 31.046875 Z M 90.410156 73.449219 L 112.253906 20.042969 L 44.957031 73.210938 "/>
</g>
</svg>
